<svg width="1440" height="631" viewBox="0 0 1440 631" fill="none" xmlns="http://www.w3.org/2000/svg">
<path d="M-39 538.3L12.3667 564.013C63.7333 588.766 166.467 641.634 269.2 627.936C371.933 615.2 474.667 538.3 577.4 487.113C680.133 434.966 782.867 410.934 885.6 358.787C988.333 307.6 1091.07 230.7 1193.8 179.513C1296.53 127.366 1399.27 103.334 1450.63 89.6366L1502 76.9V0H1450.63C1399.27 0 1296.53 0 1193.8 0C1091.07 0 988.333 0 885.6 0C782.867 0 680.133 0 577.4 0C474.667 0 371.933 0 269.2 0C166.467 0 63.7333 0 12.3667 0H-39V538.3Z" fill="#684AA2"/>
</svg>
